<?xml version="1.0" encoding="UTF-8" standalone="no"?>
<svg
   viewBox="0 0 40 40"
   x="0px"
   y="0px"
   version="1.1"
   id="svg2"
   sodipodi:docname="noun-tile-6608523.svg"
   width="40"
   height="40"
   inkscape:version="1.3.2 (091e20e, 2023-11-25)"
   xmlns:inkscape="http://www.inkscape.org/namespaces/inkscape"
   xmlns:sodipodi="http://sodipodi.sourceforge.net/DTD/sodipodi-0.dtd"
   xmlns="http://www.w3.org/2000/svg"
   xmlns:svg="http://www.w3.org/2000/svg">
  <defs
     id="defs2" />
  <sodipodi:namedview
     id="namedview2"
     pagecolor="#ffffff"
     bordercolor="#000000"
     borderopacity="0.25"
     inkscape:showpageshadow="2"
     inkscape:pageopacity="0.0"
     inkscape:pagecheckerboard="0"
     inkscape:deskcolor="#d1d1d1"
     inkscape:zoom="16.687773"
     inkscape:cx="20.194426"
     inkscape:cy="21.752453"
     inkscape:window-width="1712"
     inkscape:window-height="1041"
     inkscape:window-x="0"
     inkscape:window-y="43"
     inkscape:window-maximized="0"
     inkscape:current-layer="svg2" />
  <path
     d="M 40,1 C 40,0.45 39.55,0 39,0 H 1 C 0.45,0 0,0.45 0,1 v 38 c 0,0.55 0.45,1 1,1 h 38 c 0.55,0 1,-0.45 1,-1 z M 9,28 c -2.2,0 -3.39,0.54 -4.07,1.25 -0.51,0.53 -0.78,1.19 -0.91,1.94 -0.13,0.71 -0.13,1.51 -0.23,2.33 -0.08,0.65 -0.21,1.31 -0.62,1.92 -0.26,0.4 -0.21,0.92 0.12,1.26 0.34,0.34 0.87,0.39 1.26,0.12 0.61,-0.41 1.27,-0.54 1.92,-0.62 0.82,-0.1 1.62,-0.1 2.33,-0.23 0.75,-0.14 1.41,-0.4 1.94,-0.91 0.72,-0.68 1.25,-1.87 1.25,-4.07 0,-0.55 -0.45,-1 -1,-1 -0.55,0 -1,0.45 -1,1 0,1.4 -0.18,2.19 -0.64,2.62 -0.42,0.41 -1.03,0.43 -1.68,0.48 -0.64,0.05 -1.32,0.09 -2,0.21 0.12,-0.68 0.16,-1.36 0.21,-2 0.05,-0.65 0.08,-1.26 0.48,-1.68 0.43,-0.45 1.23,-0.64 2.62,-0.64 0.55,0 1,-0.45 1,-1 0,-0.55 -0.45,-1 -1,-1 v 0 z m 22,2 c 1.4,0 2.19,0.18 2.62,0.64 0.41,0.42 0.43,1.03 0.48,1.68 0.05,0.64 0.09,1.32 0.21,2 -0.68,-0.12 -1.36,-0.16 -2,-0.21 -0.65,-0.05 -1.26,-0.08 -1.68,-0.48 -0.45,-0.43 -0.64,-1.23 -0.64,-2.62 0,-0.55 -0.45,-1 -1,-1 -0.55,0 -1,0.45 -1,1 0,2.2 0.54,3.39 1.25,4.07 0.53,0.51 1.19,0.78 1.94,0.91 0.71,0.13 1.51,0.13 2.33,0.23 0.65,0.08 1.31,0.21 1.92,0.62 0.4,0.26 0.92,0.21 1.26,-0.12 0.34,-0.34 0.39,-0.87 0.12,-1.26 -0.41,-0.61 -0.54,-1.27 -0.62,-1.92 -0.1,-0.82 -0.1,-1.62 -0.23,-2.33 -0.14,-0.75 -0.4,-1.41 -0.91,-1.94 -0.68,-0.72 -1.87,-1.25 -4.07,-1.25 -0.55,0 -1,0.45 -1,1 0,0.55 0.45,1 1,1 v 0 z m -4,6 v -2 c 0,-0.55 -0.45,-1 -1,-1 -0.55,0 -1,0.45 -1,1 v 2 c 0,0.55 0.45,1 1,1 0.55,0 1,-0.45 1,-1 z m -12,0 v -2 c 0,-0.55 -0.45,-1 -1,-1 -0.55,0 -1,0.45 -1,1 v 2 c 0,0.55 0.45,1 1,1 0.55,0 1,-0.45 1,-1 z m 0,-5 c 0,1.18 1.14,4.77 4.68,5.95 0.21,0.07 0.43,0.07 0.63,0 3.55,-1.18 4.68,-4.77 4.68,-5.95 0,-0.55 -0.45,-1 -1,-1 -0.55,0 -1,0.45 -1,1 0,0.78 -0.79,3.02 -3,3.93 -2.21,-0.91 -3,-3.15 -3,-3.93 0,-0.55 -0.45,-1 -1,-1 -0.55,0 -1,0.45 -1,1 v 0 z m 6,1 v -3 c 0,-0.55 -0.45,-1 -1,-1 -0.55,0 -1,0.45 -1,1 v 3 c 0,0.55 0.45,1 1,1 0.55,0 1,-0.45 1,-1 z m 11,1 c 0.55,0 1,-0.45 1,-1 0,-0.55 -0.45,-1 -1,-1 -0.55,0 -1,0.45 -1,1 0,0.55 0.45,1 1,1 z M 8,33 c -0.55,0 -1,-0.45 -1,-1 0,-0.55 0.45,-1 1,-1 0.55,0 1,0.45 1,1 0,0.55 -0.45,1 -1,1 z M 23,19.96 c 1.75,-0.29 3.42,-0.72 4.64,-1.41 1.15,-0.65 1.93,-1.52 2.22,-2.65 0.29,-1.13 0.08,-2.57 -1,-4.4 -0.11,-0.19 -0.28,-0.33 -0.48,-0.42 -1.8,-0.73 -3.18,-0.75 -4.25,-0.36 -1.05,0.38 -1.84,1.16 -2.44,2.22 -0.64,1.12 -1.06,2.57 -1.45,4.07 C 20.16,17.01 20.08,17 20,17 c -0.08,0 -0.16,0 -0.24,0.01 -0.38,-1.51 -0.81,-2.96 -1.45,-4.07 -0.6,-1.06 -1.4,-1.84 -2.44,-2.22 -1.07,-0.39 -2.44,-0.37 -4.25,0.36 -0.2,0.08 -0.37,0.23 -0.48,0.42 -1.08,1.83 -1.29,3.28 -1,4.4 0.29,1.13 1.08,2.01 2.22,2.65 1.22,0.69 2.89,1.12 4.64,1.41 V 20 c -1.75,0.29 -3.42,0.72 -4.64,1.41 -1.15,0.65 -1.93,1.52 -2.22,2.65 -0.29,1.13 -0.08,2.57 1,4.4 0.11,0.19 0.28,0.33 0.48,0.42 1.8,0.73 3.18,0.75 4.25,0.36 1.05,-0.38 1.84,-1.16 2.44,-2.22 0.63,-1.11 1.06,-2.55 1.44,-4.04 0.08,0 0.16,0.01 0.25,0.01 0.09,0 0.17,0 0.25,-0.01 0.38,1.5 0.81,2.93 1.44,4.04 0.6,1.06 1.4,1.84 2.44,2.22 1.07,0.39 2.44,0.37 4.25,-0.36 0.2,-0.08 0.37,-0.23 0.48,-0.42 1.08,-1.83 1.29,-3.28 1,-4.4 C 29.57,22.93 28.78,22.05 27.64,21.41 26.42,20.72 24.75,20.29 23,20 Z m -5.31,1.95 c -1.36,0.21 -2.68,0.48 -3.74,0.94 -0.93,0.4 -1.67,0.89 -1.88,1.7 -0.17,0.69 0.03,1.53 0.62,2.6 1.04,0.38 1.85,0.45 2.49,0.21 0.79,-0.29 1.28,-1.02 1.68,-1.9 0.44,-0.97 0.74,-2.13 1.04,-3.32 -0.07,-0.07 -0.14,-0.15 -0.21,-0.23 z m 4.61,0 c -0.07,0.08 -0.14,0.16 -0.21,0.23 0.29,1.18 0.6,2.35 1.04,3.32 0.4,0.89 0.89,1.62 1.68,1.9 0.64,0.23 1.45,0.17 2.49,-0.21 0.59,-1.07 0.79,-1.91 0.62,-2.59 -0.21,-0.81 -0.95,-1.31 -1.88,-1.7 -1.07,-0.45 -2.39,-0.73 -3.74,-0.94 v 0 z M 4,27 H 6 C 6.55,27 7,26.55 7,26 7,25.45 6.55,25 6,25 H 4 c -0.55,0 -1,0.45 -1,1 0,0.55 0.45,1 1,1 z m 32,-2 h -2 c -0.55,0 -1,0.45 -1,1 0,0.55 0.45,1 1,1 h 2 c 0.55,0 1,-0.45 1,-1 0,-0.55 -0.45,-1 -1,-1 z m -9.79,-0.28 -1,-1.01 c -0.39,-0.39 -1.02,-0.4 -1.41,0 -0.39,0.39 -0.4,1.02 0,1.41 l 1,1.01 c 0.39,0.39 1.02,0.4 1.41,0 0.39,-0.39 0.4,-1.02 0,-1.41 z m -11,1.4 1,-1.01 c 0.39,-0.39 0.38,-1.03 -0.01,-1.41 -0.39,-0.39 -1.03,-0.38 -1.41,0 l -1,1.01 c -0.39,0.39 -0.38,1.03 0.01,1.41 0.39,0.39 1.03,0.38 1.41,0 z M 9,14.99 c -1.18,0 -4.77,1.14 -5.95,4.68 -0.07,0.21 -0.07,0.43 0,0.63 1.18,3.55 4.77,4.68 5.95,4.68 0.55,0 1,-0.45 1,-1 0,-0.55 -0.45,-1 -1,-1 -0.78,0 -3.02,-0.79 -3.93,-3 0.91,-2.21 3.15,-3 3.93,-3 0.55,0 1,-0.45 1,-1 0,-0.55 -0.45,-1 -1,-1 v 0 z m 22,2 c 0.78,0 3.02,0.79 3.93,3 -0.91,2.21 -3.15,3 -3.93,3 -0.55,0 -1,0.45 -1,1 0,0.55 0.45,1 1,1 1.18,0 4.77,-1.14 5.95,-4.68 0.07,-0.21 0.07,-0.43 0,-0.63 C 35.77,16.13 32.18,15 31,15 c -0.55,0 -1,0.45 -1,1 0,0.55 0.45,1 1,1 v 0 z m -23,4 h 3 c 0.55,0 1,-0.45 1,-1 0,-0.55 -0.45,-1 -1,-1 H 8 c -0.55,0 -1,0.45 -1,1 0,0.55 0.45,1 1,1 z m 12,-2 c 0.55,0 1,0.45 1,1 0,0.55 -0.45,1 -1,1 -0.55,0 -1,-0.45 -1,-1 0,-0.55 0.45,-1 1,-1 z m 12,0 h -3 c -0.55,0 -1,0.45 -1,1 0,0.55 0.45,1 1,1 h 3 c 0.55,0 1,-0.45 1,-1 0,-0.55 -0.45,-1 -1,-1 z M 17.72,18.04 c 0.06,-0.07 0.12,-0.14 0.19,-0.21 -0.3,-1.19 -0.6,-2.37 -1.04,-3.34 -0.4,-0.89 -0.89,-1.62 -1.68,-1.9 -0.64,-0.23 -1.45,-0.17 -2.49,0.21 -0.59,1.07 -0.79,1.91 -0.62,2.59 0.21,0.81 0.95,1.31 1.88,1.7 1.07,0.46 2.4,0.74 3.77,0.94 v 0 z m 4.37,-0.21 c 0.07,0.07 0.13,0.13 0.19,0.21 1.37,-0.21 2.69,-0.49 3.77,-0.94 0.93,-0.4 1.67,-0.89 1.88,-1.7 0.17,-0.69 -0.03,-1.53 -0.62,-2.6 -1.04,-0.38 -1.85,-0.45 -2.49,-0.21 -0.79,0.29 -1.28,1.02 -1.68,1.9 -0.44,0.98 -0.75,2.15 -1.04,3.34 v 0 z m -8.3,-2.6 1,1.01 c 0.39,0.39 1.02,0.4 1.41,0 0.39,-0.39 0.4,-1.02 0.01,-1.41 l -1,-1.01 c -0.39,-0.39 -1.02,-0.4 -1.41,0 -0.39,0.39 -0.4,1.02 -0.01,1.41 z m 11,-1.4 -1,1.01 c -0.39,0.39 -0.38,1.03 0,1.41 0.39,0.39 1.03,0.38 1.41,0 l 1,-1.01 c 0.39,-0.39 0.38,-1.03 0,-1.41 -0.39,-0.39 -1.03,-0.38 -1.41,0 z M 4,14.99 h 2 c 0.55,0 1,-0.45 1,-1 0,-0.55 -0.45,-1 -1,-1 H 4 c -0.55,0 -1,0.45 -1,1 0,0.55 0.45,1 1,1 z m 32,-2 h -2 c -0.55,0 -1,0.45 -1,1 0,0.55 0.45,1 1,1 h 2 c 0.55,0 1,-0.45 1,-1 0,-0.55 -0.45,-1 -1,-1 z M 9,9.99 C 7.6,9.99 6.81,9.81 6.38,9.35 5.97,8.93 5.95,8.32 5.9,7.67 5.85,7.03 5.81,6.35 5.69,5.67 c 0.68,0.12 1.36,0.16 2,0.21 0.65,0.05 1.26,0.08 1.68,0.48 0.45,0.43 0.64,1.23 0.64,2.62 0,0.55 0.45,1 1,1 0.55,0 1,-0.45 1,-1 0,-2.2 -0.54,-3.39 -1.25,-4.07 C 10.23,4.4 9.57,4.13 8.82,4 8.11,3.87 7.31,3.87 6.49,3.77 5.84,3.69 5.18,3.56 4.57,3.15 4.17,2.89 3.65,2.94 3.31,3.27 2.97,3.61 2.92,4.14 3.19,4.53 3.6,5.14 3.73,5.8 3.81,6.45 c 0.1,0.82 0.1,1.62 0.23,2.33 0.14,0.75 0.4,1.41 0.91,1.94 0.68,0.72 1.87,1.25 4.07,1.25 0.55,0 1,-0.45 1,-1 0,-0.55 -0.45,-1 -1,-1 v 0 z m 22,2 c 2.2,0 3.39,-0.54 4.07,-1.25 C 35.58,10.21 35.85,9.55 35.98,8.8 36.11,8.09 36.11,7.29 36.21,6.47 36.29,5.82 36.42,5.16 36.83,4.55 37.09,4.15 37.04,3.63 36.71,3.29 36.37,2.95 35.84,2.9 35.45,3.17 34.84,3.58 34.18,3.71 33.53,3.79 32.71,3.89 31.91,3.89 31.2,4.02 30.45,4.16 29.79,4.42 29.26,4.93 28.54,5.61 28.01,6.8 28.01,9 c 0,0.55 0.45,1 1,1 0.55,0 1,-0.45 1,-1 0,-1.4 0.18,-2.19 0.64,-2.62 0.42,-0.41 1.03,-0.43 1.68,-0.48 0.64,-0.05 1.32,-0.09 2,-0.21 -0.12,0.68 -0.16,1.36 -0.21,2 -0.05,0.65 -0.08,1.26 -0.48,1.68 -0.43,0.45 -1.23,0.64 -2.62,0.64 -0.55,0 -1,0.45 -1,1 0,0.55 0.45,1 1,1 v 0 z m -12,-4 v 3 c 0,0.55 0.45,1 1,1 0.55,0 1,-0.45 1,-1 v -3 c 0,-0.55 -0.45,-1 -1,-1 -0.55,0 -1,0.45 -1,1 z m -2,1 c 0,-0.78 0.79,-3.02 3,-3.93 2.21,0.91 3,3.15 3,3.93 0,0.55 0.45,1 1,1 0.55,0 1,-0.45 1,-1 0,-1.18 -1.14,-4.77 -4.68,-5.95 -0.21,-0.07 -0.43,-0.07 -0.63,0 -3.55,1.18 -4.68,4.77 -4.68,5.95 0,0.55 0.45,1 1,1 0.55,0 1,-0.45 1,-1 v 0 z m -9,-2 c -0.55,0 -1,0.45 -1,1 0,0.55 0.45,1 1,1 0.55,0 1,-0.45 1,-1 0,-0.55 -0.45,-1 -1,-1 z m 24,0 c 0.55,0 1,0.45 1,1 0,0.55 -0.45,1 -1,1 -0.55,0 -1,-0.45 -1,-1 0,-0.55 0.45,-1 1,-1 z m -7,-3 v 2 c 0,0.55 0.45,1 1,1 0.55,0 1,-0.45 1,-1 v -2 c 0,-0.55 -0.45,-1 -1,-1 -0.55,0 -1,0.45 -1,1 z m -12,0 v 2 c 0,0.55 0.45,1 1,1 0.55,0 1,-0.45 1,-1 v -2 c 0,-0.55 -0.45,-1 -1,-1 -0.55,0 -1,0.45 -1,1 z"
     fill-rule="evenodd"
     id="path1" />
  <path
     style="fill:#ffffff;stroke-width:0.0760586"
     d="m 13.614483,29.397385 c -0.505058,-0.07481 -1.43634,-0.333782 -1.872225,-0.520625 -0.415427,-0.178074 -0.57268,-0.382597 -1.017265,-1.323055 -0.496022,-1.049267 -0.674947,-1.824399 -0.627425,-2.718115 0.04601,-0.86532 0.222458,-1.370362 0.706214,-2.021396 0.960752,-1.292969 2.651032,-2.084782 5.757971,-2.697324 0.240535,-0.04742 0.437336,-0.109782 0.437336,-0.138578 0,-0.02879 -0.457912,-0.145446 -1.017583,-0.259225 -2.575791,-0.523647 -4.249276,-1.350162 -5.154598,-2.545797 -0.568892,-0.751321 -0.704383,-1.185547 -0.70699,-2.265791 -0.0021,-0.854577 0.0151,-0.961907 0.269467,-1.685304 0.149419,-0.424931 0.420659,-1.033 0.602756,-1.351265 0.290374,-0.507508 0.379205,-0.601427 0.722411,-0.763789 1.004931,-0.475409 2.714699,-0.709996 3.619621,-0.496627 1.375992,0.32444 2.539817,1.406269 3.294561,3.062445 0.240709,0.5282 0.721383,1.961666 0.99164,2.957266 0.113187,0.41697 0.124464,0.429731 0.379757,0.429731 0.255101,0 0.266703,-0.01307 0.381377,-0.429731 0.755529,-2.745139 1.376183,-4.028486 2.420893,-5.00576 0.821037,-0.76804 1.655157,-1.088827 2.829336,-1.08811 1.097877,6.7e-4 2.586838,0.396425 3.007394,0.799343 0.264656,0.253557 0.842331,1.417537 1.074335,2.164717 0.14315,0.461024 0.176632,0.73821 0.174558,1.445113 -0.0023,0.77695 -0.02572,0.93001 -0.209789,1.369967 -0.269555,0.644274 -0.778631,1.285604 -1.368361,1.723847 -1.005979,0.74757 -2.765147,1.415092 -4.598616,1.744961 -0.42878,0.07714 -0.7796,0.161877 -0.7796,0.188296 0,0.02642 0.29948,0.106583 0.665512,0.178141 1.920467,0.375442 3.376789,0.877754 4.295006,1.481426 1.854611,1.219296 2.442978,2.921788 1.737075,5.026381 -0.297226,0.886156 -0.811476,1.869925 -1.075942,2.058298 -0.29761,0.21198 -1.260501,0.512159 -2.095251,0.653189 -1.322312,0.223403 -2.487323,-0.06544 -3.494775,-0.866456 -0.997424,-0.793046 -1.857207,-2.469809 -2.491366,-4.858699 l -0.179232,-0.675172 h -0.290303 -0.290303 l -0.144071,0.53241 c -0.704828,2.604674 -1.539246,4.234168 -2.578937,5.036284 -0.986972,0.761443 -2.107547,1.046687 -3.374588,0.859004 z m 1.895423,-2.160857 c 0.441522,-0.258749 0.874898,-0.762282 1.217959,-1.415129 0.302715,-0.576067 0.854613,-2.18685 1.075462,-3.138867 0.125051,-0.539059 0.126554,-0.602026 0.01698,-0.711596 -0.10957,-0.10957 -0.211668,-0.102487 -1.153828,0.08005 -1.431876,0.277415 -2.250248,0.524508 -3.063028,0.924826 -1.682652,0.828754 -2.02674,1.909261 -1.182514,3.71333 0.212352,0.453786 0.25053,0.492134 0.608234,0.610945 0.892184,0.296335 1.911166,0.270228 2.480731,-0.06356 z m 11.481346,0.06644 c 0.343908,-0.12317 0.38678,-0.16813 0.592088,-0.620927 0.642696,-1.417435 0.557765,-2.390075 -0.272518,-3.12092 -0.681831,-0.600171 -1.955757,-1.087067 -3.83757,-1.466722 -1.079995,-0.217889 -1.177516,-0.22629 -1.303472,-0.112302 -0.130423,0.118032 -0.126812,0.158934 0.08597,0.973722 0.554782,2.124401 1.232942,3.583873 1.891136,4.069921 0.552605,0.408076 0.81812,0.478291 1.675,0.442949 0.488641,-0.02015 0.942519,-0.08448 1.169369,-0.165721 z m -6.498158,-6.411751 c 0.693505,-0.371931 0.700542,-1.440675 0.01183,-1.796821 -0.70175,-0.362889 -1.527743,0.128578 -1.527743,0.90901 0,0.786471 0.814937,1.263749 1.515913,0.887811 z m -2.653783,-2.945703 c 0.08083,-0.09739 0.07419,-0.222204 -0.03746,-0.703542 -0.220198,-0.949374 -0.772106,-2.557768 -1.081463,-3.151649 -0.388336,-0.745496 -1.003738,-1.360311 -1.539847,-1.538378 -0.509595,-0.16926 -1.510502,-0.125764 -2.136501,0.09285 -0.415349,0.145048 -0.420138,0.150293 -0.67388,0.738038 -0.548553,1.270621 -0.506606,2.09407 0.142874,2.804705 0.695719,0.761227 2.039965,1.30595 4.257876,1.725402 0.918583,0.173722 0.950451,0.174694 1.068397,0.03258 z m 5.605244,-0.07079 c 2.373533,-0.462824 3.936201,-1.209446 4.397202,-2.100924 0.298999,-0.578199 0.203735,-1.505833 -0.25958,-2.52765 -0.219559,-0.484227 -0.228382,-0.492466 -0.668146,-0.623888 -0.679613,-0.203099 -1.596251,-0.23357 -2.090268,-0.06948 -0.800435,0.265862 -1.506528,1.210788 -2.039226,2.728988 -0.366924,1.045743 -0.70765,2.395341 -0.656345,2.599754 0.05746,0.228943 0.108762,0.228678 1.316363,-0.0068 z"
     id="path2" />
  <path
     style="fill:#ffffff;stroke-width:0.0599241"
     d="m 15.100876,16.396174 c -0.137482,-0.06326 -0.499664,-0.378506 -0.849329,-0.739268 -0.467563,-0.482403 -0.625263,-0.68703 -0.676706,-0.878075 -0.211363,-0.784941 0.608897,-1.46202 1.346918,-1.111806 0.109197,0.05182 0.482099,0.384991 0.828672,0.740385 0.496725,0.509371 0.638939,0.69312 0.671732,0.867921 0.09139,0.487141 -0.101171,0.904165 -0.514971,1.11527 -0.287347,0.146594 -0.496677,0.148041 -0.806316,0.0056 z"
     id="path3" />
  <path
     style="fill:#ffffff;stroke-width:0.0599241"
     d="m 14.13738,26.282935 c -0.280188,-0.127255 -0.467048,-0.339925 -0.56834,-0.646843 -0.128036,-0.387952 -0.0019,-0.627483 0.714433,-1.357014 0.350697,-0.357144 0.710448,-0.687476 0.799446,-0.734071 0.753643,-0.394566 1.678127,0.530602 1.280584,1.281532 -0.140239,0.264902 -1.304051,1.377812 -1.545342,1.477753 -0.284352,0.117778 -0.381121,0.114742 -0.680781,-0.02136 z"
     id="path4" />
  <path
     style="fill:#ffffff;stroke-width:0.0599241"
     d="m 25.108203,26.286954 c -0.335345,-0.158915 -1.4296,-1.299867 -1.525577,-1.590681 -0.193356,-0.585876 0.292021,-1.235983 0.922798,-1.235983 0.342924,0 0.630051,0.188213 1.198673,0.785737 0.642951,0.675632 0.751885,0.846489 0.752174,1.179753 6.08e-4,0.698656 -0.719832,1.158888 -1.348068,0.861174 z"
     id="path5" />
  <path
     style="fill:#ffffff;stroke-width:0.0599241"
     d="m 25.108203,26.286954 c -0.36225,-0.171665 -1.439913,-1.310326 -1.532451,-1.619191 -0.236254,-0.788546 0.623655,-1.474831 1.370527,-1.093805 0.245199,0.125091 1.197981,1.08278 1.389104,1.396257 0.07464,0.122423 0.12075,0.303101 0.120888,0.47369 5.57e-4,0.685505 -0.724147,1.138718 -1.348068,0.843049 z"
     id="path6" />
  <path
     style="fill:#ffffff;stroke-width:0.0599241"
     d="m 24.07575,16.391413 c -0.27393,-0.12435 -0.471894,-0.387852 -0.532554,-0.708862 -0.06959,-0.368277 0.105564,-0.657612 0.831961,-1.374293 0.720777,-0.711136 0.878125,-0.79464 1.335629,-0.708811 0.283114,0.05311 0.665961,0.43596 0.719074,0.719073 0.08579,0.4573 0.0023,0.614579 -0.712919,1.343565 -0.859462,0.875961 -1.091257,0.978969 -1.641191,0.729328 z"
     id="path7" />
  <path
     style="fill:#ffffff;stroke-width:0.0599241"
     d="m 19.53526,11.822292 c -0.155689,-0.08936 -0.28761,-0.232006 -0.376407,-0.406995 -0.134322,-0.264705 -0.136416,-0.299859 -0.119848,-2.0119938 l 0.01686,-1.7425817 0.167889,-0.219996 c 0.237108,-0.3106974 0.473918,-0.4184074 0.851133,-0.3871258 0.368096,0.030525 0.633315,0.1989218 0.771314,0.4897335 0.08291,0.1747137 0.09727,0.4656462 0.09727,1.969814 0,1.7315408 -0.0025,1.7685608 -0.134829,1.9629298 -0.313471,0.460584 -0.82964,0.600923 -1.273388,0.346215 z"
     id="path8" />
  <path
     style="fill:#ffffff;stroke-width:0.0599241"
     d="m 7.5198666,20.808648 c -0.340268,-0.231585 -0.4488214,-0.43087 -0.4488214,-0.823957 0,-0.378972 0.098129,-0.570498 0.4125846,-0.805273 0.1587711,-0.118539 0.2404711,-0.123551 2.0143419,-0.123551 1.7820813,0 1.8549693,0.0045 2.0180443,0.125359 0.603144,0.446899 0.58639,1.206664 -0.03585,1.625996 -0.199033,0.134128 -0.229974,0.136255 -1.9821893,0.136255 -1.7472785,0 -1.7836416,-0.0025 -1.9781051,-0.134829 z"
     id="path9" />
  <path
     style="fill:#ffffff;stroke-width:0.0599241"
     d="m 19.721284,32.927867 c -0.225776,-0.07 -0.508836,-0.338753 -0.612873,-0.581903 -0.117855,-0.275447 -0.119168,-3.408608 -0.0015,-3.690119 0.117251,-0.280623 0.464727,-0.561816 0.754806,-0.610825 0.316406,-0.05346 0.75352,0.150942 0.946889,0.442776 0.132466,0.199918 0.134916,0.236476 0.134916,2.013577 0,1.778576 -0.0023,1.813436 -0.135033,2.010337 -0.23581,0.349919 -0.712383,0.532347 -1.08716,0.416157 z"
     id="path10" />
  <path
     style="fill:#ffffff;stroke-width:0.0599241"
     d="m 28.673687,20.90024 c -0.399573,-0.150143 -0.701036,-0.641602 -0.629689,-1.026551 0.05987,-0.323048 0.252316,-0.596556 0.513493,-0.729798 0.214125,-0.109239 0.358563,-0.117986 1.948317,-0.117986 1.66085,0 1.724765,0.0043 1.952881,0.132547 0.494499,0.277924 0.645565,0.88404 0.336671,1.35081 -0.279061,0.42169 -0.349524,0.43483 -2.303043,0.429484 -0.950809,-0.0026 -1.769192,-0.01993 -1.81863,-0.03851 z"
     id="path11" />
  <path
     style="fill:#ffffff;stroke-width:0.0599241"
     d="M 15.611455,9.8425353 C 15.00958,9.5349922 14.91003,8.9651696 15.255298,7.8038887 c 0.570898,-1.9201689 2.002095,-3.6212039 3.74108,-4.446424 0.895241,-0.4248284 1.106491,-0.4221379 2.049313,0.026101 1.312851,0.6241578 2.449324,1.7410936 3.147463,3.0933558 0.673022,1.3036106 0.91858,2.4256307 0.647253,2.9574754 C 24.501228,10.099242 23.498469,10.106788 23.1669,9.4469901 23.10646,9.3267176 23.03807,9.0555843 23.014923,8.8444714 22.859502,7.4269503 21.72236,5.880462 20.310412,5.1663941 L 20.006929,5.0129133 19.759126,5.123858 c -1.300701,0.5823414 -2.596139,2.2549073 -2.739928,3.5375751 -0.07196,0.6419099 -0.09898,0.7255837 -0.309657,0.9587748 -0.193627,0.2143222 -0.488056,0.3559013 -0.742049,0.3568223 -0.05069,1.84e-4 -0.21091,-0.060339 -0.356037,-0.1344949 z"
     id="path12" />
  <path
     style="fill:#ffffff;stroke-width:0.0599241"
     d="M 8.3594136,24.867006 C 6.8128683,24.548868 5.0925177,23.496477 4.179327,22.309921 3.6451746,21.615869 3.1295329,20.61062 3.0502959,20.108863 c -0.098552,-0.624066 0.8590029,-2.299626 1.8185844,-3.182215 1.0231334,-0.941043 2.4884264,-1.672909 3.72988,-1.862954 0.4177625,-0.06395 0.502953,-0.06012 0.7484903,0.03365 0.323218,0.123438 0.5646858,0.437949 0.6090189,0.793243 0.057669,0.462164 -0.4076589,1.036587 -0.8416851,1.039016 -0.6405508,0.0036 -1.7199139,0.429079 -2.4370214,0.960692 -0.6478039,0.480237 -1.2856731,1.244885 -1.5337263,1.83856 -0.116914,0.279815 -0.06066,0.464121 0.3241827,1.062122 0.7287302,1.132363 2.0822852,2.018666 3.3527541,2.195372 0.5438215,0.07564 0.7376119,0.164153 0.9390935,0.428936 0.292234,0.384046 0.278144,0.802375 -0.039199,1.163809 -0.3336078,0.379958 -0.6196741,0.440462 -1.3612541,0.287913 z"
     id="path13" />
  <path
     style="fill:#ffffff;stroke-width:0.0599241"
     d="m 19.505298,36.86063 c -1.58411,-0.608504 -2.941097,-1.8504 -3.746604,-3.428842 -0.323529,-0.633976 -0.604315,-1.478873 -0.695724,-2.093467 -0.06217,-0.41802 -0.05766,-0.461542 0.07578,-0.730525 0.18078,-0.364403 0.46178,-0.555854 0.815847,-0.555854 0.578357,0 0.941499,0.356622 1.006826,0.988748 0.146819,1.420658 1.237383,3.001978 2.536419,3.677811 0.550889,0.286604 0.547823,0.286959 1.240492,-0.143797 0.531324,-0.33042 1.304876,-1.129655 1.641075,-1.695561 0.309442,-0.520868 0.57588,-1.265746 0.63237,-1.767906 0.05227,-0.464647 0.218464,-0.769275 0.508674,-0.932383 0.565803,-0.317999 1.297449,0.01191 1.414905,0.638009 0.09234,0.49221 -0.223293,1.654096 -0.71195,2.620791 -0.567996,1.123648 -1.394206,2.066788 -2.37873,2.715385 -0.998978,0.658119 -1.820946,0.906738 -2.339383,0.707591 z"
     id="path14" />
  <path
     style="fill:#ffffff;stroke-width:0.0599241"
     d="m 30.651214,24.891071 c -0.531576,-0.211968 -0.756594,-0.864889 -0.47236,-1.370615 0.163108,-0.29021 0.467736,-0.456404 0.932383,-0.508674 0.50216,-0.05649 1.247038,-0.322928 1.767906,-0.63237 0.565906,-0.336199 1.365141,-1.109751 1.695561,-1.641075 0.430756,-0.692669 0.430401,-0.689603 0.143797,-1.240492 -0.664142,-1.276565 -2.192134,-2.35207 -3.569558,-2.512498 -0.502885,-0.05857 -0.738428,-0.165228 -0.916179,-0.414857 -0.384503,-0.539984 -0.11122,-1.324687 0.520589,-1.494816 0.681013,-0.183378 2.354798,0.38418 3.583055,1.214964 0.516638,0.34945 1.34934,1.173493 1.70346,1.685746 0.167529,0.242339 0.432575,0.705328 0.588991,1.028864 0.250598,0.518343 0.284293,0.634635 0.283547,0.978599 -0.0021,0.974694 -1.09204,2.603106 -2.394913,3.578139 -1.216302,0.910245 -3.203499,1.59337 -3.866279,1.329085 z"
     id="path15" />
  <path
     style="fill:#ffffff;stroke-width:0.0599241"
     d="m 33.647419,14.885436 c -0.08238,-0.03378 -0.213028,-0.120471 -0.290333,-0.192647 -0.475751,-0.444192 -0.399816,-1.141897 0.165761,-1.523039 0.194515,-0.131084 0.250419,-0.136256 1.472834,-0.136256 1.222416,0 1.278319,0.0052 1.472834,0.136256 0.622173,0.419282 0.639004,1.178753 0.03603,1.625996 -0.157517,0.116835 -0.25529,0.126233 -1.438178,0.138233 -0.760737,0.0077 -1.329174,-0.01173 -1.418952,-0.04854 z"
     id="path16" />
  <path
     style="fill:#ffffff;stroke-width:0.0599241"
     d="M 25.64752,6.8699469 C 25.346579,6.7284838 25.152115,6.5196552 25.07681,6.2570798 25.04464,6.1449055 25.01832,5.5515801 25.01832,4.9385789 c 0,-1.050806 0.008,-1.1296518 0.139324,-1.3786502 0.159787,-0.3028896 0.505457,-0.5312669 0.806405,-0.5327753 0.434528,-0.00218 0.849268,0.3190197 0.965925,0.7480656 0.09598,0.3529858 0.08033,2.2217366 -0.02098,2.5057984 -0.1972,0.5529292 -0.769585,0.8201518 -1.261474,0.5889295 z"
     id="path17" />
  <path
     style="fill:#ffffff;stroke-width:0.0599241"
     d="M 13.728873,6.9208024 C 13.503097,6.850806 13.220037,6.5820494 13.116,6.3388995 13.05529,6.1970156 13.03349,5.8352776 13.03349,4.9697012 c 0,-1.3220409 0.03364,-1.4664315 0.408256,-1.7521627 0.173123,-0.1320468 0.274347,-0.1614088 0.556452,-0.1614088 0.386667,0 0.587601,0.110244 0.818035,0.4488215 0.129228,0.1898765 0.134829,0.2502536 0.134829,1.4535745 0,1.0444879 -0.01668,1.2906182 -0.09925,1.4646265 -0.179903,0.3791171 -0.725446,0.620884 -1.122941,0.4976502 z"
     id="path18" />
  <path
     style="fill:#ffffff;stroke-width:0.0599241"
     d="M 3.5779809,14.851127 C 3.3314088,14.729603 3.1661703,14.522885 3.076581,14.223863 2.9444527,13.782858 3.2423392,13.218341 3.674768,13.090254 c 0.1379362,-0.04086 0.681389,-0.05806 1.4535921,-0.04603 l 1.2332928,0.01923 0.214517,0.163761 c 0.2583718,0.197238 0.4378675,0.615652 0.3826178,0.891901 -0.059663,0.298313 -0.2692351,0.585727 -0.5205971,0.713962 -0.2078684,0.106047 -0.3543019,0.117848 -1.4471211,0.116621 -0.9984822,-0.0011 -1.2511125,-0.01874 -1.4130886,-0.09857 z"
     id="path19" />
  <path
     style="fill:#ffffff;stroke-width:0.0599241"
     d="M 3.7245945,26.908404 C 3.310333,26.760699 3.0261676,26.386403 3.0261676,25.988452 c 0,-0.295344 0.2476613,-0.679181 0.5369215,-0.832146 0.2464196,-0.13031 0.3255576,-0.137989 1.4219619,-0.137989 1.3003153,0 1.431498,0.02861 1.739411,0.379299 0.2482399,0.28273 0.3010422,0.565929 0.1696594,0.90995 -0.1186333,0.310637 -0.3662605,0.538869 -0.6788558,0.625685 -0.3380291,0.09388 -2.2100603,0.07521 -2.4906711,-0.02485 z"
     id="path20" />
  <path
     style="fill:#ffffff;stroke-width:0.0599241"
     d="m 13.518397,36.813689 c -0.451585,-0.309864 -0.454941,-0.323275 -0.454941,-1.818008 0,-1.265263 0.0069,-1.348881 0.125358,-1.508689 0.4469,-0.603144 1.206665,-0.586391 1.625997,0.03585 0.130962,0.194335 0.136255,0.250992 0.136255,1.458556 0,1.159872 -0.0095,1.273102 -0.123904,1.47426 -0.182574,0.321068 -0.389244,0.448174 -0.772235,0.474937 -0.274007,0.01915 -0.368134,-0.0014 -0.53653,-0.116911 z"
     id="path21" />
  <path
     style="fill:#ffffff;stroke-width:0.0599241"
     d="m 25.49159,36.807902 c -0.111988,-0.07442 -0.264288,-0.255414 -0.338444,-0.402204 -0.125925,-0.249265 -0.134742,-0.342236 -0.133513,-1.407733 0.0011,-0.982796 0.01677,-1.174869 0.112865,-1.386467 0.311343,-0.685558 1.255874,-0.75551 1.673908,-0.123969 l 0.159444,0.240878 v 1.26284 c 0,1.213614 -0.0054,1.271482 -0.13785,1.484535 -0.289048,0.464859 -0.905965,0.618173 -1.33641,0.33212 z"
     id="path22" />
  <path
     style="fill:#ffffff;stroke-width:0.0599241"
     d="m 33.754734,26.938816 c -0.860877,-0.271349 -0.953419,-1.438377 -0.143236,-1.806318 0.211598,-0.0961 0.403671,-0.111732 1.386467,-0.112865 1.065497,-0.0012 1.158468,0.0076 1.407733,0.133513 0.697913,0.352575 0.73592,1.260838 0.07008,1.674854 -0.209483,0.130257 -0.286058,0.138515 -1.390215,0.149914 -0.642686,0.0066 -1.241561,-0.01096 -1.330833,-0.0391 z"
     id="path23" />
  <path
     style="fill:#ffffff;stroke-width:0.0599241"
     d="m 35.780994,36.939447 c -0.09541,-0.02774 -0.356966,-0.146858 -0.581235,-0.264708 -0.522053,-0.274331 -1.106904,-0.422344 -2.004731,-0.507356 -1.726007,-0.163428 -1.969948,-0.194339 -2.398377,-0.303913 -1.597272,-0.408513 -2.482969,-1.625809 -2.718265,-3.735966 -0.128737,-1.154524 -0.04393,-1.611295 0.351428,-1.892816 0.206405,-0.146973 0.56961,-0.219264 0.804915,-0.160206 0.196535,0.04933 0.500003,0.308942 0.610184,0.522009 0.05485,0.106063 0.110238,0.496429 0.146242,1.030637 0.07655,1.135801 0.212952,1.58945 0.59194,1.96867 0.368074,0.368299 0.668736,0.452482 2.015622,0.564353 0.593248,0.04928 1.225157,0.115857 1.404241,0.14796 0.179084,0.0321 0.330055,0.05837 0.335492,0.05837 0.0054,0 -0.01188,-0.141571 -0.03848,-0.314602 -0.0266,-0.17303 -0.09076,-0.813469 -0.142571,-1.423197 -0.107576,-1.265921 -0.189557,-1.615338 -0.453823,-1.934292 -0.362406,-0.437402 -0.940723,-0.633059 -2.00372,-0.677901 -0.995767,-0.04201 -1.083072,-0.06164 -1.351297,-0.30397 -0.393364,-0.355381 -0.438721,-0.885676 -0.111349,-1.301861 0.217176,-0.276095 0.412233,-0.336316 1.085145,-0.335022 1.62483,0.0031 2.878622,0.412864 3.643365,1.190652 0.703915,0.715922 0.94887,1.440246 1.106707,3.272508 0.144833,1.681312 0.236295,2.085962 0.638254,2.82381 0.277963,0.510236 0.297415,0.770245 0.08477,1.1331 -0.205548,0.350741 -0.656251,0.547888 -1.014454,0.443744 z"
     id="path24" />
  <path
     style="fill:#ffffff;stroke-width:0.0599241"
     d="m 35.780994,36.939447 c -0.09541,-0.02774 -0.356966,-0.146858 -0.581235,-0.264708 -0.522053,-0.274331 -1.106904,-0.422344 -2.004731,-0.507356 -1.726007,-0.163428 -1.969948,-0.194339 -2.398377,-0.303913 -1.597272,-0.408513 -2.482969,-1.625809 -2.718265,-3.735966 -0.129369,-1.16019 -0.04428,-1.611044 0.358112,-1.897575 0.291946,-0.207884 0.746672,-0.229702 1.010693,-0.04849 0.416346,0.285753 0.533733,0.59768 0.541255,1.438244 0.0046,0.516646 0.147348,1.256347 0.305413,1.582867 0.17282,0.356999 0.527991,0.659285 0.908051,0.772843 0.174995,0.05229 0.790075,0.134331 1.366845,0.18232 1.064971,0.08861 1.437304,0.131713 1.641913,0.190074 0.106752,0.03045 0.111192,0.0068 0.07124,-0.378903 -0.02343,-0.226257 -0.08011,-0.835694 -0.12595,-1.354305 -0.121356,-1.372984 -0.175533,-1.592276 -0.48393,-1.958784 -0.343027,-0.407665 -0.94449,-0.597685 -2.0321,-0.642 -0.428457,-0.01746 -0.864874,-0.05797 -0.969814,-0.09002 -0.274449,-0.08383 -0.596422,-0.464585 -0.647244,-0.765403 -0.05383,-0.318626 0.14959,-0.754973 0.442418,-0.949002 0.179441,-0.118898 0.279044,-0.134775 0.838938,-0.133729 1.643759,0.0031 2.89336,0.409419 3.66149,1.190652 0.703915,0.715922 0.94887,1.440246 1.106707,3.272508 0.144833,1.681312 0.236295,2.085962 0.638254,2.82381 0.277963,0.510236 0.297415,0.770245 0.08477,1.1331 -0.205548,0.350741 -0.656251,0.547888 -1.014454,0.443744 z"
     id="path25" />
  <path
     style="fill:#ffffff;stroke-width:0.0599241"
     d="m 30.530725,11.820031 c -0.460125,-0.313159 -0.601448,-0.831265 -0.346428,-1.270048 0.224295,-0.385918 0.43315,-0.468688 1.324357,-0.524845 1.185617,-0.074708 1.671695,-0.2113698 2.105011,-0.5918262 0.328682,-0.2885868 0.443483,-0.6892038 0.545917,-1.9050783 0.04895,-0.5810362 0.114588,-1.2304008 0.145859,-1.4430324 0.03127,-0.2126316 0.04878,-0.3946756 0.03892,-0.4045422 -0.0099,-0.00987 -0.231395,0.00949 -0.492284,0.043006 -0.26089,0.03352 -0.919281,0.099974 -1.463093,0.1476769 -0.543811,0.047703 -1.096611,0.1207061 -1.228444,0.1622301 -0.365188,0.1150248 -0.836521,0.6149582 -0.955644,1.0136314 -0.135517,0.453542 -0.210301,1.0183462 -0.211689,1.5987747 -0.0014,0.5834242 -0.08278,0.8133015 -0.380487,1.0746899 -0.399112,0.3504241 -0.945966,0.3195591 -1.290496,-0.072839 -0.2753,-0.3135499 -0.31546,-0.5495652 -0.246873,-1.4508357 0.169168,-2.222924 0.933956,-3.4383795 2.503212,-3.978283 0.450374,-0.1549513 0.848692,-0.2169418 2.067278,-0.3217315 1.447056,-0.1244365 1.867499,-0.2183356 2.607297,-0.5822979 0.529339,-0.2604219 0.65205,-0.2988469 0.863712,-0.2704572 0.463232,0.062133 0.826367,0.4706464 0.826367,0.9296343 0,0.1968956 -0.05728,0.3750105 -0.209884,0.6526392 -0.405108,0.7370027 -0.501028,1.1751746 -0.658792,3.0094149 -0.10431,1.2127537 -0.201575,1.6616401 -0.494365,2.2815287 -0.615608,1.3033523 -2.188018,2.0374193 -4.364259,2.0374193 -0.406477,0 -0.519869,-0.02231 -0.68519,-0.134829 z"
     id="path26" />
  <path
     style="fill:#ffffff;stroke-width:0.0599241"
     d="M 7.9690262,11.891857 C 6.1966406,11.719617 4.9856833,11.037688 4.4409104,9.9050578 4.1538163,9.3081651 4.0596552,8.8703235 3.9538619,7.6403242 3.8018797,5.8733118 3.684008,5.348185 3.2576444,4.5386254 3.0576316,4.1588501 3.0237763,4.0460072 3.0566375,3.8686501 3.1155544,3.5506671 3.3093728,3.2766744 3.5691361,3.1441531 3.9114459,2.9695196 4.1848277,2.9932802 4.6264969,3.2360521 5.3753704,3.6476846 5.7970923,3.742256 7.563529,3.8946837 c 1.7747198,0.1531424 2.493623,0.401298 3.198936,1.104229 0.775051,0.7724344 1.188003,2.0277496 1.191208,3.6211031 0.0013,0.6674089 -0.08201,0.9208723 -0.370329,1.1261771 C 11.194106,10.023355 10.737675,9.9952753 10.368892,9.6714796 10.104841,9.4396398 10.055388,9.2611312 10.013704,8.3893756 9.9401823,6.8517671 9.5388034,6.1457115 8.636571,5.9668943 8.4676553,5.9334162 7.8710321,5.8649209 7.3107416,5.8146824 6.7504512,5.7644439 6.1466711,5.7055197 5.9690081,5.6837398 l -0.3230236,-0.0396 0.041893,0.2233076 c 0.023041,0.1228191 0.093177,0.7809459 0.1558586,1.462504 0.062681,0.6815581 0.1386359,1.3216695 0.1687881,1.4224697 0.1611654,0.5387818 0.4976942,0.8664649 1.0730694,1.0448631 0.3972058,0.1231561 1.4000977,0.2432568 1.9096798,0.2286928 1.0169146,-0.029062 1.3529666,1.312326 0.4483306,1.789559 -0.2864588,0.151118 -0.559482,0.165249 -1.4745775,0.07632 z"
     id="path27" />
  <path
     style="fill:#ffffff;stroke-width:0.0599241"
     d="M 3.4994413,36.807902 C 3.2723069,36.656959 3.0261676,36.224735 3.0261676,35.976826 c 0,-0.08909 0.1053672,-0.360853 0.2341492,-0.603921 0.4069287,-0.768051 0.52148,-1.291265 0.6664128,-3.043847 0.1435091,-1.735366 0.4231768,-2.485398 1.1875765,-3.184924 0.6708652,-0.613929 1.6572853,-0.960095 3.0741102,-1.078803 0.9755354,-0.08174 1.2020947,-0.03921 1.4805009,0.277876 0.3252897,0.370485 0.3552338,0.827014 0.079631,1.214063 -0.188728,0.265043 -0.4917403,0.355855 -1.4190965,0.425297 -1.1165695,0.08361 -1.5673022,0.222753 -1.9449629,0.600414 -0.3620106,0.362011 -0.4526664,0.696245 -0.5711158,2.105622 -0.048474,0.576769 -0.1064241,1.181007 -0.1287782,1.34275 l -0.040644,0.294079 0.2940784,-0.04064 c 0.1617431,-0.02235 0.7659808,-0.0811 1.3427504,-0.130537 1.3597343,-0.116557 1.6225795,-0.172173 1.9331212,-0.409031 0.5248316,-0.400302 0.6814073,-0.830337 0.7883562,-2.165213 0.07754,-0.967767 0.147789,-1.191411 0.432947,-1.378254 0.516681,-0.338543 1.194519,-0.134541 1.43715,0.432524 0.155863,0.364275 0.07629,1.620572 -0.162382,2.563681 -0.361987,1.430388 -1.220289,2.313367 -2.5889835,2.66342 -0.2463599,0.06301 -0.9432102,0.157579 -1.5485559,0.210156 -1.7732918,0.154021 -2.191656,0.245812 -2.905729,0.637528 -0.513816,0.281861 -0.8491308,0.310255 -1.1672623,0.09884 z"
     id="path28" />
  <path
     style="fill:#ffffff;stroke-width:0.0599241"
     d="M 7.7549933,32.932823 C 7.4848194,32.847686 7.27753,32.677459 7.1574794,32.44214 6.8289202,31.798111 7.2822747,31.047604 7.9998689,31.047604 c 0.519216,0 0.9587858,0.4364 0.9587858,0.951872 0,0.601828 -0.6517991,1.107249 -1.2036614,0.933347 z"
     id="path29" />
  <path
     style="fill:#ffffff;stroke-width:0.0599241"
     d="m 31.635221,32.874587 c -0.280189,-0.127255 -0.467049,-0.339925 -0.568341,-0.646843 -0.140922,-0.427 0.151231,-0.946335 0.636651,-1.131719 0.225811,-0.08624 0.308339,-0.09158 0.504951,-0.03267 0.522967,0.156685 0.863633,0.689472 0.728737,1.139715 -0.09524,0.317899 -0.285563,0.540749 -0.573489,0.671518 -0.306146,0.139045 -0.422363,0.139045 -0.728509,0 z"
     id="path30" />
  <path
     style="fill:#ffffff;stroke-width:0.0599241"
     d="m 31.669893,8.8916339 c -0.0824,-0.032683 -0.23797,-0.1446321 -0.345721,-0.2487753 -0.605626,-0.5853471 -0.177103,-1.6017755 0.675304,-1.6017755 0.852295,0 1.281158,1.0169961 0.675304,1.6013984 -0.310825,0.2998187 -0.659321,0.3862252 -1.004887,0.2491524 z"
     id="path31" />
  <path
     style="fill:#ffffff;stroke-width:0.0599241"
     d="M 7.6104957,8.8676933 C 7.2178605,8.6554419 7.0410831,8.3707657 7.0410831,7.9507312 c 0,-0.4683994 0.4650842,-0.9096481 0.9587858,-0.9096481 0.6954789,0 1.1582315,0.730107 0.8604667,1.3575998 C 8.6439723,8.8546346 8.0196947,9.0888988 7.6104957,8.8676933 Z"
     id="path32" />
</svg>
